<svg class="flex justify-center" width="150" height="150" viewBox="0 0 153 153"
			xmlns="http://www.w3.org/2000/svg">
			<rect width="152.735" height="152.839" rx="8" fill="transparent" />
			<path d="M54.6534 10.0719C51.0184 10.4288 45.9838 12.1943 42.8153 14.2229C40.4049 15.763 37.2558 19.1626 35.9923 21.5856C35.312 22.8628 33.718 27.0137 32.9988 29.2864C32.3962 31.2773 30.8605 37.175 30.4717 39.0533C29.5387 43.7114 29.8108 47.2988 31.5409 52.2198C31.9491 53.4219 32.299 54.5488 32.299 54.7179C32.299 54.9996 31.6186 56.2956 28.8 61.4044C25.5926 67.227 23.571 71.6033 22.0548 76.0548C20.8885 79.5108 20.5774 80.6941 19.6833 85.014C18.7113 89.6909 18.4198 92.7524 18.5364 97.0348C18.653 101.035 19.0612 103.778 20.072 107.384C20.4997 108.868 20.7913 110.145 20.733 110.258C20.6552 110.352 20.4608 110.427 20.2664 110.427C19.7221 110.427 16.923 112.192 15.504 113.451C11.4413 117.057 9.47797 122.354 10.1194 128.007C10.6054 132.233 12.3355 135.332 16.3398 139.145C18.8668 141.549 20.1109 142.432 21.4522 142.751C22.7351 143.052 23.6488 142.582 24.3291 141.305C24.7956 140.441 24.8151 140.253 24.7956 137.192C24.7956 134.6 24.6984 133.492 24.2902 131.275C23.8237 128.834 23.6488 126.711 23.7265 124.683C23.7265 124.307 23.9209 123.8 24.1153 123.556C24.5041 123.105 24.5041 123.105 24.7956 123.481C25.0872 123.837 25.0872 123.837 24.99 123.387C24.8928 122.973 24.9123 122.955 25.1067 123.255C25.2233 123.424 25.3982 123.537 25.5149 123.481C25.7093 123.349 25.7481 123.593 25.6898 124.307C25.6704 124.683 25.6898 124.72 25.9425 124.495C26.098 124.345 26.1758 124.194 26.098 124.138C26.0397 124.082 25.962 123.875 25.9231 123.668C25.8842 123.405 25.962 123.443 26.1952 123.856C26.4285 124.232 26.4479 124.42 26.2924 124.476C25.8259 124.626 26.1175 124.814 26.7395 124.739C27.2643 124.683 27.4199 124.739 27.4976 125.021C27.5559 125.246 27.5948 125.171 27.6337 124.795C27.6531 124.476 27.6726 124.138 27.6337 124.044C27.6142 123.931 27.7114 123.969 27.8475 124.082C28.1585 124.382 28.2557 124.889 28.003 124.889C27.8864 124.889 27.8669 124.983 27.9447 125.096C28.0225 125.246 28.178 125.152 28.3529 124.87C28.6056 124.42 28.6056 124.42 28.489 124.983L28.3529 125.547L28.7806 125.077L29.1888 124.607L28.9944 125.133C28.8389 125.547 28.8583 125.659 29.0333 125.584C29.1693 125.547 29.2665 125.396 29.2277 125.284C29.2082 125.152 29.2665 125.096 29.3637 125.152C29.4609 125.227 29.597 125.115 29.6359 124.946C29.7136 124.645 29.7331 124.645 29.7525 124.927C29.7525 125.096 29.6747 125.302 29.5776 125.359C29.3248 125.509 29.3248 126.016 29.597 126.016C29.6942 126.016 29.7331 125.922 29.6747 125.828C29.6164 125.716 29.6164 125.641 29.7136 125.622C29.7914 125.622 30.0246 125.584 30.1996 125.547C30.3745 125.509 30.6856 125.641 30.8994 125.847C31.1132 126.035 31.327 126.11 31.3659 126.016C31.4048 125.941 31.6769 125.791 31.9879 125.716C32.5128 125.603 32.5517 125.622 32.4545 126.091C32.3184 126.73 32.4545 126.711 32.7072 126.073C32.8432 125.697 32.9404 125.622 33.0571 125.81C33.1931 126.016 33.2515 126.016 33.3487 125.81C33.407 125.659 33.4264 125.716 33.407 125.922C33.3681 126.129 33.2515 126.279 33.1154 126.26C32.9793 126.223 32.9404 126.335 33.0182 126.523C33.0959 126.73 33.1737 126.767 33.232 126.617C33.2709 126.486 33.4847 126.392 33.6791 126.392C33.9318 126.392 34.029 126.317 33.9318 126.148C33.8541 126.035 33.8541 125.979 33.9513 126.054C34.029 126.129 34.2234 126.11 34.3789 125.979C34.5733 125.828 34.7094 125.828 34.8843 125.997C35.0593 126.185 35.0398 126.204 34.7871 126.11C34.4178 125.96 33.9124 126.655 34.2428 126.861C34.3595 126.937 34.4178 126.88 34.3983 126.749C34.3595 126.636 34.4567 126.486 34.6122 126.429C34.7677 126.392 34.826 126.429 34.7482 126.542C34.6899 126.636 34.7677 126.786 34.9426 126.843C35.0981 126.899 35.1953 126.88 35.1176 126.786C35.0593 126.692 35.0981 126.411 35.1953 126.166C35.3703 125.753 35.3897 125.753 35.3897 126.279C35.4092 126.767 35.448 126.805 35.6619 126.542C36.0117 126.11 36.5755 125.979 36.5755 126.298C36.5755 126.636 36.8865 126.674 37.042 126.335C37.1003 126.223 37.1392 126.411 37.1003 126.786C37.0614 127.181 37.1392 127.462 37.2753 127.462C37.3919 127.462 37.4696 127.256 37.4308 127.012C37.4113 126.767 37.4696 126.58 37.5668 126.58C37.664 126.58 37.7418 126.749 37.7418 126.974C37.7418 127.181 37.839 127.293 37.9362 127.237C38.0528 127.162 38.0917 127.03 38.0334 126.937C37.9556 126.843 38.0139 126.767 38.1306 126.767C38.2666 126.767 38.3055 126.937 38.2278 127.181C38.1111 127.575 38.15 127.556 38.5971 127.068C38.8692 126.767 39.1025 126.598 39.1025 126.692C39.1025 126.805 39.0053 126.974 38.8692 127.106C38.6943 127.275 38.7332 127.312 39.0636 127.237C39.2969 127.199 39.5301 127.237 39.5885 127.35C39.6662 127.444 39.6079 127.519 39.4913 127.519C39.3746 127.519 39.3358 127.613 39.4135 127.725C39.4913 127.876 39.6273 127.801 39.7829 127.519C39.9772 127.162 40.0356 127.143 40.1327 127.406C40.2883 127.782 40.0939 128.308 39.8606 128.157C39.7634 128.101 39.744 128.214 39.8217 128.383C39.9189 128.646 39.9772 128.608 40.2105 128.195C40.366 127.913 40.4243 127.613 40.366 127.519C40.3077 127.406 40.3271 127.331 40.4438 127.331C40.541 127.331 40.677 127.481 40.7159 127.65C40.7937 127.951 40.8131 127.951 40.8325 127.631C40.852 127.331 40.8909 127.331 41.2408 127.725C41.4351 127.97 41.6101 128.082 41.6295 127.951C41.6295 127.838 41.5129 127.688 41.3963 127.65C41.2602 127.594 41.4935 127.594 41.9211 127.65C42.3488 127.707 42.8153 127.876 42.9514 128.045C43.0874 128.233 43.1846 128.251 43.1846 128.12C43.1846 127.988 43.3013 127.894 43.4373 127.894C43.6123 127.894 43.69 128.101 43.6706 128.458C43.6511 128.758 43.7095 128.965 43.8067 128.909C43.9038 128.852 43.9233 128.665 43.8844 128.495C43.8261 128.308 43.865 128.045 43.9622 127.894C44.1177 127.669 44.1566 127.725 44.1566 128.12C44.1566 128.42 44.2343 128.646 44.3315 128.646C44.4287 128.646 44.4676 128.458 44.3898 128.214C44.2926 127.838 44.3121 127.819 44.6036 128.063C44.8175 128.233 44.9341 128.251 44.9341 128.101C44.9341 127.988 45.0313 127.894 45.1479 127.894C45.2451 127.894 45.3034 127.97 45.2451 128.045C45.2062 128.12 45.2451 128.308 45.3617 128.458C45.5173 128.683 45.5367 128.683 45.4395 128.42C45.3812 128.233 45.4201 128.045 45.5173 127.988C45.6339 127.913 45.7116 127.97 45.7116 128.063C45.7116 128.176 45.8866 128.27 46.081 128.27C46.2948 128.27 46.5086 128.383 46.5475 128.495C46.6253 128.683 46.6641 128.683 46.6641 128.495C46.6836 128.383 46.9168 128.27 47.189 128.27C47.4611 128.27 47.6361 128.345 47.5778 128.439C47.5194 128.514 47.6944 128.552 47.9471 128.495C48.2192 128.458 48.4331 128.495 48.4331 128.571C48.4331 128.665 48.6469 128.74 48.919 128.74C49.1912 128.74 49.405 128.665 49.405 128.571C49.405 128.477 49.5216 128.495 49.6577 128.589C49.7743 128.683 50.2409 128.74 50.6491 128.721C51.0767 128.683 51.5821 128.758 51.7959 128.871C52.0875 129.003 52.2236 129.003 52.3402 128.815C52.4763 128.608 52.5152 128.627 52.5152 128.909C52.5152 129.19 52.5735 129.209 52.7873 129.04C53.0011 128.852 53.0789 128.89 53.1567 129.153C53.2344 129.416 53.2539 129.416 53.2733 129.19C53.2927 128.946 53.5843 128.909 55.1005 128.927C56.0725 128.946 56.9666 128.909 57.0638 128.871C57.161 128.815 57.7636 128.74 58.4245 128.702C59.066 128.665 59.688 128.552 59.7852 128.458C59.9019 128.345 60.1935 128.27 60.4462 128.27C60.8155 128.27 60.8738 128.345 60.7766 128.665C60.6794 128.946 60.6989 129.021 60.8738 128.927C60.9904 128.852 61.0682 128.646 61.0099 128.458C60.9516 128.214 61.0488 128.12 61.3987 128.139C61.7097 128.139 61.8069 128.195 61.6902 128.308C61.457 128.533 61.593 129.021 61.8846 129.021C62.0012 129.021 62.0012 128.927 61.8652 128.758C61.6902 128.552 61.7485 128.439 62.2345 128.251C62.5455 128.101 62.8177 127.913 62.8177 127.819C62.8177 127.744 62.9537 127.763 63.1093 127.894C63.2648 128.007 63.4786 128.063 63.5758 128.007C63.673 127.932 63.8285 127.988 63.9062 128.101C63.984 128.251 64.0812 128.233 64.1978 128.063C64.3533 127.838 64.4116 127.857 64.5672 128.082C64.7227 128.308 64.7615 128.27 64.7615 127.894C64.7615 127.575 64.8199 127.5 64.917 127.669C65.0142 127.801 65.2281 127.857 65.4225 127.782C65.7335 127.669 65.7724 127.725 65.6557 128.289L65.5585 128.927L65.7724 128.308C66.0056 127.65 66.822 127.275 67.0942 127.707C67.1719 127.838 67.2691 127.857 67.308 127.744C67.3469 127.65 68.1244 127.519 69.038 127.5C69.9517 127.462 70.7292 127.387 70.7875 127.331C70.8458 127.275 71.5456 126.805 72.3426 126.298C74.0921 125.209 76.0165 123.462 76.833 122.222C77.1829 121.715 77.6883 120.644 77.9798 119.818C78.5241 118.297 78.9712 117.658 79.3989 117.808C79.5155 117.846 79.7488 117.752 79.8848 117.583C80.0987 117.32 80.1181 117.339 80.0015 117.752C79.9431 118.015 79.9431 118.165 80.0209 118.09C80.1181 118.015 80.3125 118.052 80.4874 118.184C80.7596 118.372 80.7596 118.372 80.5457 118.09C80.3319 117.827 80.3708 117.771 80.9151 117.658C81.5177 117.526 81.5371 117.508 81.1678 117.245C80.7984 116.982 80.7984 116.963 81.1872 117.038C81.3816 117.076 81.7315 117.264 81.9453 117.451C82.3147 117.808 82.3341 117.808 82.4702 117.451C82.5479 117.264 82.6257 117.207 82.6257 117.32C82.6451 117.451 82.7812 117.564 82.9561 117.564C83.1505 117.564 83.2283 117.47 83.1505 117.264C83.0922 117.113 83.1116 117.038 83.2283 117.094C83.3449 117.151 83.4227 117.357 83.4421 117.526C83.4421 117.714 83.5004 117.752 83.5393 117.62C83.5976 117.489 83.8892 117.433 84.2585 117.47L84.8806 117.564L84.2585 117.339C83.9086 117.226 83.6171 117.057 83.6171 116.963C83.6171 116.869 83.792 116.888 83.9864 117.001C84.4723 117.245 84.8417 117.245 84.6862 117.001C84.6279 116.907 84.6862 116.869 84.8611 116.925C85.0166 116.982 85.0944 117.151 85.0361 117.301C84.9778 117.451 85.0361 117.564 85.1333 117.564C85.2499 117.564 85.3082 117.357 85.2499 117.094C85.211 116.832 85.2499 116.625 85.3665 116.625C85.4637 116.625 85.5609 116.738 85.5609 116.85C85.5804 117.001 85.6775 116.944 85.8525 116.738C85.9886 116.55 86.2024 116.456 86.319 116.531C86.4357 116.587 86.5329 116.512 86.5329 116.324C86.5329 116.024 86.5717 116.024 86.9216 116.343C87.2326 116.606 87.291 116.625 87.2132 116.418C87.1354 116.212 87.3104 116.043 87.8741 115.836C88.5739 115.573 88.6322 115.573 88.535 115.836C88.4573 116.024 88.4962 116.08 88.6322 115.986C88.7683 115.911 88.8655 115.723 88.8655 115.573C88.8655 115.385 88.9627 115.348 89.0988 115.423C89.2348 115.517 89.507 115.592 89.6819 115.592C89.9346 115.611 89.9735 115.554 89.8374 115.404C89.6819 115.235 89.7402 115.141 90.0318 115.066C90.2651 115.01 90.4983 115.085 90.615 115.273C90.7122 115.46 90.8094 115.498 90.8094 115.404C90.8094 115.291 90.6733 115.01 90.4983 114.765L90.1679 114.333L90.6927 114.653C90.9649 114.841 91.1981 115.066 91.1981 115.179C91.1981 115.291 91.2564 115.329 91.3148 115.254C91.3731 115.197 91.3536 115.047 91.2759 114.916C91.0232 114.503 91.0621 113.845 91.3342 113.939C91.4897 113.995 91.5869 114.127 91.5675 114.258C91.5092 114.784 91.6063 115.31 91.7618 115.31C91.859 115.31 91.9174 115.047 91.8785 114.747C91.8202 114.409 91.8785 114.221 91.9757 114.277C92.0923 114.352 92.1701 114.559 92.1701 114.747C92.1701 114.935 92.2478 115.16 92.3644 115.216C92.4811 115.291 92.5005 115.197 92.4228 114.991C92.3061 114.69 92.3256 114.69 92.6366 114.916C92.9282 115.16 92.9671 115.141 92.8699 114.709C92.831 114.427 92.7143 114.052 92.6171 113.864C92.2478 113.169 92.4616 112.944 95.1247 111.178C97.1658 109.844 98.7015 108.323 99.79 106.558C101.248 104.21 101.559 102.519 101.015 100.04C100.295 96.7343 97.9433 94.7997 93.8612 94.1235C91.5092 93.7479 89.7208 93.992 86.3773 95.1378C83.8892 95.983 81.576 96.5653 81.3816 96.3774C81.3233 96.3211 81.2844 95.8139 81.2844 95.2317C81.2844 93.4849 80.6235 90.8742 79.8071 89.3903C78.4269 86.8359 75.5306 84.5257 72.9258 83.8871L71.8567 83.6241L71.5456 82.1779C71.3707 81.389 71.0014 80.0554 70.7292 79.2102C70.1072 77.2193 70.0489 76.7685 69.9128 73.1435C69.7184 67.5839 69.4657 65.2736 68.6298 60.8785C68.3966 59.714 68.2605 58.6998 68.3188 58.6434C68.3771 58.5871 68.7076 58.6434 69.0575 58.7561C69.9517 59.0566 71.7206 59.0191 72.9258 58.6622C74.1504 58.3053 75.1224 57.7419 75.9777 56.8779C76.7163 56.1078 78.4075 53.4407 78.8546 52.2949C79.0878 51.7503 79.4572 51.2995 80.0403 50.905C81.1095 50.1537 82.4896 48.4258 83.2283 46.9044C84.3752 44.5378 85.0749 40.5935 84.7639 38.3396C84.4335 36.0481 82.6062 33.813 79.3794 31.7281C78.4658 31.1271 77.7466 30.5448 77.7077 30.3194C77.6688 30.1128 77.4939 29.061 77.3189 27.9716C77.0079 25.8492 76.1526 22.7877 75.4917 21.3602C74.928 20.1206 73.4701 17.9981 72.4981 16.9651C71.5456 15.9696 69.0769 14.0726 67.483 13.0959C63.9062 10.9359 58.58 9.67749 54.6534 10.0719ZM57.8803 12.4761C62.8954 13.3213 66.5305 14.9929 69.6795 17.9042C71.9344 20.0079 72.9452 22.1491 73.7228 26.469C73.956 27.765 74.3059 29.2488 74.5198 29.7935C74.9863 31.052 76.3081 32.4606 78.0576 33.6064C79.4572 34.5079 80.1375 35.109 79.7876 35.109C79.0101 35.109 76.0554 35.7476 75.4528 36.0481C74.0727 36.7243 73.5089 37.7949 73.8977 38.9594C74.1893 39.7858 75.8416 41.5514 76.6386 41.8707C77.2412 42.1148 77.2412 42.1336 77.144 43.2981C76.9496 45.6272 75.3556 47.9562 72.6731 49.7781C69.835 51.6939 66.3361 52.1259 60.485 51.2807C59.688 51.168 58.444 51.0177 57.7053 50.9614C56.9861 50.905 56.2863 50.7548 56.1502 50.6233C56.0141 50.4918 55.8003 50.4167 55.6837 50.4543C55.5476 50.5106 55.1394 50.3979 54.7506 50.2101L54.0508 49.8908L54.2063 48.7451C54.3813 47.4866 54.3424 42.6032 54.1675 41.3635L54.0508 40.5747L54.7895 40.462C59.0271 39.8422 60.5433 39.2975 62.3123 37.7197C64.5088 35.7851 66.0834 33.2119 66.6471 30.6951C67.0359 28.9295 66.8804 25.8304 66.3361 24.3278C65.5002 22.0176 63.6535 19.8388 60.1935 17.0778C58.1135 15.4062 55.4699 13.002 55.2172 12.5324C55.0616 12.2507 55.1005 12.1943 55.5865 12.1943C55.8975 12.1943 56.9278 12.3258 57.8803 12.4761ZM49.405 21.2099C49.4827 21.3226 49.5022 22.2054 49.4439 23.1445C49.3467 25.2857 49.8326 30.7514 50.4547 34.4704C51.31 39.4853 51.621 42.5844 51.621 46.0967C51.6404 49.7593 51.4266 50.9614 50.4547 52.896C49.3856 55.0372 46.1004 57.4226 43.5928 57.8733C39.5301 58.6059 35.137 55.4316 33.9318 50.8675C33.7763 50.2477 33.6597 49.6466 33.6985 49.5339C33.7374 49.4212 34.6899 50.3603 35.7785 51.6188C37.9751 54.1356 39.0247 54.9996 40.6576 55.6007C44.001 56.8403 47.9471 54.0981 49.1523 49.703C49.8132 47.3176 49.3661 41.3635 47.811 32.0099C47.4806 30.1128 47.4028 28.6666 47.3834 25.5299C47.3639 23.3136 47.4222 21.3414 47.5194 21.1348C47.6361 20.8531 47.811 20.7967 48.4719 20.8906C48.8996 20.947 49.3272 21.0972 49.405 21.2099ZM60.66 27.0513C61.768 27.4269 61.9235 28.2158 61.0682 29.1549C60.5628 29.7184 60.5045 29.9438 60.4462 31.1834C60.3878 32.4794 60.349 32.5733 59.9408 32.6297C59.2604 32.7236 58.5995 32.0099 58.2301 30.8078C58.0552 30.2255 57.8025 29.5306 57.647 29.2676C57.2777 28.5539 57.6081 27.7087 58.4051 27.3518C59.688 26.7883 59.8047 26.7696 60.66 27.0513ZM80.468 36.9121C81.1678 37.3817 81.0123 37.8888 80.0792 38.302C78.7768 38.8843 76.7163 38.7152 76.4831 38.0203C76.347 37.6258 76.969 37.1187 77.9021 36.8933C79.185 36.5552 79.9431 36.5552 80.468 36.9121ZM82.0036 41.8143C81.887 43.9743 81.5177 45.2703 80.7012 46.3409L80.1181 47.111L79.5349 46.7917C79.1462 46.5851 78.9906 46.3785 79.0684 46.1906C79.1267 46.0404 79.3017 45.2327 79.4572 44.4063C79.6127 43.5799 79.7682 42.791 79.8265 42.6783C79.9237 42.3778 81.9064 39.9924 82.0231 39.9924C82.0814 39.9924 82.062 40.8188 82.0036 41.8143ZM79.1073 47.9186C79.1462 48.2943 78.9712 48.6136 78.3686 49.1958C77.4939 50.041 76.8913 50.3228 76.0165 50.3228C75.4723 50.3228 75.4917 50.2852 76.969 48.8202C77.7854 47.9938 78.6019 47.3364 78.7574 47.3739C78.9129 47.3927 79.0684 47.6369 79.1073 47.9186ZM55.0422 53.2904C55.0422 53.5158 54.9839 53.5158 54.7506 53.328C54.5174 53.1402 54.459 53.1402 54.459 53.328C54.459 53.4782 54.4007 53.5346 54.3424 53.4595C54.1675 53.2904 54.4007 53.0087 54.7506 53.0087C54.9061 53.0087 55.0422 53.1402 55.0422 53.2904ZM53.9925 54.5301C53.8953 55.0748 53.8953 55.0935 54.1286 54.6803C54.2647 54.4549 54.4396 54.3235 54.5174 54.3798C54.5951 54.4549 54.6534 54.4174 54.6534 54.3047C54.6534 54.1732 54.5757 54.0793 54.459 54.0793C54.0508 54.0793 54.2841 53.7975 54.7118 53.7788C54.9839 53.76 55.1783 53.8539 55.1783 54.0042C55.1783 54.1356 55.1005 54.2108 55.0033 54.1544C54.9256 54.0981 54.8478 54.2295 54.8478 54.4549C54.8478 54.8118 54.8867 54.8306 55.1394 54.5676C55.2949 54.4174 55.431 54.2108 55.431 54.0981C55.431 53.9854 55.567 53.9666 55.7614 54.0229C55.9753 54.0981 56.0336 54.0793 55.9364 53.929C55.7809 53.6661 55.8392 53.6473 56.2863 53.8163C56.4612 53.8727 56.5973 54.0041 56.5973 54.1168C56.5973 54.2108 56.5195 54.2295 56.4029 54.1732C56.2863 54.0981 56.2668 54.192 56.3446 54.3798C56.4224 54.5676 56.3835 54.6615 56.2668 54.5864C56.1696 54.5301 56.0725 54.6052 56.0725 54.7554C56.0725 54.9245 56.1502 54.9621 56.2668 54.8494C56.364 54.7554 56.5973 54.7179 56.7722 54.7742C57.025 54.8494 57.0249 54.8306 56.8111 54.6803C56.6167 54.5301 56.5973 54.4174 56.7917 54.1544C56.9861 53.8539 57.0055 53.8539 56.9083 54.1168C56.85 54.3047 56.8889 54.4549 56.9861 54.4549C57.1027 54.4549 57.1805 54.3422 57.1999 54.2108C57.1999 54.0417 57.2388 54.0417 57.2971 54.2108C57.3554 54.3422 57.2971 54.624 57.1805 54.8681C56.9666 55.2814 56.9861 55.2814 57.2582 54.9433C57.4332 54.7367 57.5692 54.3986 57.5887 54.192C57.6081 53.8539 57.6275 53.8539 57.7636 54.2671C57.8997 54.6615 57.9191 54.6803 57.958 54.361L57.9774 53.9854L58.1524 54.361C58.2496 54.5676 58.3273 54.624 58.3273 54.4925C58.3468 54.3798 58.4245 54.2671 58.5412 54.2671C58.6384 54.2671 58.6772 54.4174 58.6189 54.5864C58.5217 54.9057 58.5217 54.9057 58.7939 54.5864C59.2215 54.0793 59.3965 54.2108 59.0271 54.7554C58.8522 55.0372 58.7939 55.1874 58.9105 55.1311C59.1632 54.9808 59.1826 55.056 59.0077 55.488C58.9105 55.7321 58.8522 55.7509 58.7161 55.5443C58.5995 55.3753 58.5412 55.3753 58.5412 55.5255C58.5412 55.9387 58.9105 55.9763 59.1243 55.5819C59.241 55.3753 59.2993 55.1311 59.2604 55.056C59.2021 54.9808 59.3576 54.7555 59.552 54.5488C59.9407 54.1732 59.9408 54.1732 59.8047 54.6428L59.6492 55.1123L60.0574 54.6428C60.2906 54.3798 60.4656 54.2671 60.485 54.361C60.485 54.4737 60.3684 54.6803 60.2518 54.8306C60.1157 54.9808 60.2129 54.9433 60.4656 54.7367C60.8932 54.3986 60.9321 54.3986 60.8155 54.6991C60.7377 54.9057 60.7572 54.9996 60.8738 54.9245C60.9904 54.8681 61.0682 54.9057 61.0682 55.0184C61.0682 55.1311 61.1654 55.1687 61.282 55.0935C61.4375 55.0184 61.4181 54.9245 61.2431 54.8118C60.9516 54.6428 60.9321 54.6428 62.0401 54.5864C62.3123 54.5676 62.7205 54.6052 62.9732 54.6803C63.2064 54.7555 63.4008 54.7554 63.4008 54.6615C63.4008 54.5864 63.7313 54.5113 64.1589 54.5113H64.8976L65.2281 56.69C65.403 57.8921 65.8307 60.7283 66.1806 63.001C66.7637 66.9077 66.8026 67.4148 66.7832 72.4861V77.8391L65.6752 81.9713C64.6255 85.8592 64.4505 86.4978 64.3922 87.0989C64.3922 87.2304 64.2756 87.2867 64.1395 87.2116C63.984 87.1177 63.9646 87.174 64.0423 87.3806C64.1201 87.5684 64.0617 87.6999 63.9257 87.7187C63.7507 87.7187 63.7507 87.7563 63.9451 87.8314C64.0617 87.869 64.1784 88.0004 64.1784 88.0944C64.1784 88.207 64.1006 88.2446 64.0034 88.1883C63.9062 88.1131 63.8674 88.2634 63.9451 88.4888C64.0229 88.7893 63.984 88.8457 63.7702 88.733C63.5369 88.5827 63.5369 88.6203 63.7702 88.8832C63.9646 89.1274 63.9646 89.2025 63.7896 89.2025C63.6535 89.2025 63.5952 89.334 63.673 89.503C63.7313 89.6533 63.7119 89.7284 63.5952 89.6721C63.4008 89.5594 63.3231 89.8036 63.3814 90.2919C63.4008 90.4422 63.3231 90.6676 63.187 90.8178C63.0704 90.9681 63.0315 91.0808 63.1093 91.0808C63.2064 91.0808 63.0704 91.231 62.8566 91.4376C62.6233 91.6255 62.4872 91.8321 62.565 91.9072C62.6233 91.9635 62.5261 92.0199 62.3123 92.0199C62.0012 92.0199 61.9818 92.0575 62.2345 92.2077C62.4678 92.358 62.4678 92.3955 62.1373 92.3955C61.8069 92.3955 61.7874 92.4331 62.0401 92.6021C62.254 92.7524 62.2734 92.8275 62.079 92.9027C61.9624 92.9402 61.9041 93.0717 61.9624 93.1844C62.0401 93.2971 61.9818 93.3534 61.8457 93.2971C61.5542 93.2032 61.2626 92.2828 59.2021 85.0704C58.4051 82.2342 57.5887 79.6047 57.4137 79.2478C57.0444 78.4965 56.364 78.3087 55.4115 78.6843C54.7117 78.9661 54.6923 79.3229 55.3338 81.1448C55.6059 81.9149 56.228 84.0186 56.6945 85.8592C57.1805 87.6811 57.7831 89.8223 58.0358 90.6488C58.3079 91.4564 58.6384 92.5834 58.7939 93.1468C60.2129 98.3684 62.6816 105.036 64.0812 107.459C64.6643 108.455 65.1503 109.337 65.1503 109.45C65.1503 109.732 64.0812 109.863 61.5542 109.882C58.4051 109.901 56.5973 109.488 55.6837 108.53C55.4504 108.267 54.634 106.971 53.8564 105.637C51.621 101.693 50.1631 99.7395 48.0054 97.7485C46.9363 96.7719 45.9838 95.9642 45.8866 95.9642C45.4589 95.9642 44.7203 93.5413 43.0874 86.7984C42.6015 84.8074 42.5431 84.6947 42.0766 84.6947C41.8045 84.6947 41.2796 84.8262 40.9103 85.014C40.2688 85.2958 40.2299 85.3521 40.3271 86.1785C40.366 86.6481 40.7742 88.5639 41.2213 90.4046C41.649 92.2453 42.0183 93.7854 42.0183 93.8042C42.0183 93.8418 41.6684 93.7479 41.2602 93.5976C38.636 92.7336 34.0873 92.3016 32.299 92.7712C31.2687 93.0341 30.9383 92.9214 30.9383 92.2641C30.9383 91.8696 31.3853 91.2686 32.7266 89.8599C37.4696 84.845 39.433 81.2575 40.7742 75.2096C41.2602 72.9932 41.3185 72.3734 41.3574 68.4103C41.3963 64.2969 41.4157 64.0152 41.8433 63.2076C42.0766 62.738 42.3876 62.3436 42.5431 62.3436C42.8736 62.3436 42.8736 62.6441 42.5626 62.8507C42.4265 62.9258 42.1738 63.17 42.0183 63.3766C41.8628 63.5832 42.0766 63.4705 42.5043 63.1137C42.9319 62.7568 43.2818 62.3999 43.2818 62.3248C43.2818 62.1745 44.3121 61.2166 44.4676 61.2354C44.5259 61.2354 45.284 60.8973 46.1587 60.4653C47.4611 59.8079 48.122 59.3008 49.8521 57.6104C50.999 56.4834 52.1847 55.2062 52.4569 54.8118C52.7679 54.361 53.0789 54.0981 53.2733 54.1356C53.4482 54.1732 53.5649 54.3047 53.526 54.4361C53.5066 54.5676 53.5649 54.6052 53.7009 54.5488C53.8564 54.4549 53.8564 54.361 53.7009 54.2108C53.3899 53.9102 53.4482 53.7036 53.7981 53.8351C54.0314 53.9102 54.0703 54.0981 53.9925 54.5301ZM69.7184 86.0283C71.1957 92.4707 73.7228 101.524 74.5586 103.346C74.8113 103.89 75.4139 104.773 75.8999 105.337C76.4831 105.994 77.0273 106.933 77.4744 108.004C78.5047 110.483 78.388 112.155 77.144 112.568C76.4831 112.793 76.3276 112.624 76.1526 111.479C75.8999 110.032 74.4031 108.173 73.4895 108.173C72.9258 108.173 72.8286 108.699 73.2562 109.262C73.7616 109.92 74.2865 110.915 74.2865 111.197C74.2865 111.328 74.1504 111.347 73.956 111.272C72.712 110.746 70.5154 110.07 69.7378 109.957C68.9992 109.844 68.7853 109.713 68.5326 109.262C68.3771 108.962 67.8523 108.135 67.3663 107.403C66.8804 106.689 66.5499 106.013 66.6082 105.919C66.6665 105.806 66.5888 105.787 66.4333 105.844C66.2389 105.919 66.1222 105.863 66.1222 105.712C66.1222 105.581 65.9862 105.337 65.8307 105.168C65.6557 104.98 65.1892 103.797 64.7615 102.519C64.1589 100.679 64.0423 100.153 64.2367 99.9273C64.4311 99.7019 64.4116 99.6644 64.1395 99.7771C63.8868 99.871 63.7896 99.7958 63.7896 99.5329C63.7896 99.3263 63.6924 99.1572 63.5758 99.1572C63.4592 99.1572 63.4008 99.0633 63.4397 98.9506C63.5369 98.6501 63.8479 98.7252 63.9062 99.0821C63.9257 99.2511 64.0229 99.439 64.1006 99.4953C64.1784 99.5704 64.1784 99.4765 64.1201 99.2887C64.0423 99.1009 64.0812 98.9694 64.2173 98.9694C64.3533 98.9694 64.2756 98.8567 64.0812 98.7065C63.8674 98.5562 63.5952 98.4811 63.4591 98.5374C63.3036 98.5938 63.2064 98.4998 63.2064 98.2932C63.2064 98.0866 63.1481 97.7298 63.0704 97.4856C62.9732 97.1099 63.0121 97.0536 63.2648 97.1475C63.4591 97.2226 63.5952 97.1851 63.5952 97.0912C63.5952 96.9785 63.4786 96.9033 63.3231 96.9033C63.1676 96.9033 63.0704 96.7531 63.1093 96.5652C63.1481 96.3962 63.187 96.1708 63.187 96.0957C63.2064 96.0018 63.3231 96.0018 63.4591 96.0769C63.6147 96.1708 63.6147 96.1145 63.4203 95.9079C63.2064 95.6449 63.2064 95.5886 63.4203 95.5698C63.5758 95.551 63.7702 95.551 63.8479 95.5698C63.9451 95.5886 63.9646 95.5134 63.9062 95.4195C63.7507 95.1753 64.3922 93.8794 64.606 94.0108C64.6838 94.0672 64.7032 93.9921 64.6643 93.8606C64.606 93.7103 64.9365 92.6961 65.4225 91.6067C65.889 90.4985 66.2194 89.5594 66.1611 89.503C66.1028 89.4279 66.1611 89.3903 66.2972 89.3903C66.4333 89.3903 66.4916 89.3152 66.4138 89.2025C66.3555 89.1086 66.4333 88.7142 66.6082 88.3197C66.7832 87.9253 66.8998 87.5872 66.8804 87.5497C66.8026 87.3806 67.3663 86.3851 67.5607 86.3851C67.6773 86.3851 67.6385 86.2912 67.483 86.1973C67.2497 86.0471 67.2497 86.0095 67.5801 86.0095C67.8912 86.0095 67.9106 85.9719 67.6773 85.8217C67.4441 85.6902 67.4441 85.5963 67.6385 85.4085C67.7551 85.2958 67.8717 85.2582 67.8717 85.3521C67.8717 85.4648 67.9495 85.4272 68.0467 85.277C68.2605 84.9577 68.105 84.4693 67.8523 84.6196C67.7551 84.6759 67.6773 84.6196 67.6773 84.5257C67.6773 84.413 67.8329 84.3191 68.0272 84.3191C68.2022 84.3191 68.2799 84.2439 68.1633 84.1688C67.8912 83.981 67.8328 83.5678 68.0661 83.5678C68.1633 83.5678 68.2022 83.4363 68.1244 83.2673C68.0661 83.0982 68.1244 82.8916 68.2799 82.7977C68.4938 82.6662 68.4938 82.5911 68.2994 82.4784C68.1633 82.3845 68.105 82.1779 68.1827 81.99C68.4743 81.2575 68.8825 82.3093 69.7184 86.0283ZM74.131 87.1552C76.1915 88.4512 77.7271 90.7239 78.2714 93.2971C78.563 94.687 78.6213 97.1099 78.3686 97.3353C78.3103 97.3917 77.6688 97.4668 76.9496 97.5232C75.8221 97.5983 75.6861 97.5795 75.9777 97.3541C76.2692 97.1475 76.2887 97.1099 76.0165 97.0912C75.3945 97.0912 75.1029 96.3774 74.3059 93.0154C73.8588 91.1183 73.3146 89.0147 73.1007 88.3197C72.5176 86.31 72.5953 86.2161 74.131 87.1552ZM39.1219 95.7013C41.7267 96.3774 43.69 97.4292 45.6533 99.2136C47.7916 101.186 49.5216 103.421 50.999 106.182C52.7484 109.431 53.3705 110.276 54.5368 110.953C56.7334 112.211 58.5606 112.474 64.1006 112.343C70.3016 112.211 71.8372 112.587 74.0338 114.803C75.3751 116.155 75.7638 117.095 75.55 118.484C75.239 120.513 73.3729 122.955 71.4096 123.931C70.9625 124.138 69.835 124.514 68.902 124.72C67.1331 125.133 65.1114 125.19 59.9991 124.983C58.8327 124.927 57.3554 124.889 56.7528 124.908C55.8781 124.908 55.6448 124.852 55.742 124.645C55.8003 124.495 55.7226 124.382 55.5476 124.382C55.3921 124.382 55.2949 124.457 55.3532 124.551C55.4115 124.626 55.1783 124.701 54.8478 124.701C54.5174 124.701 54.2841 124.626 54.3424 124.551C54.3813 124.476 54.1286 124.438 53.7593 124.476C53.3705 124.532 53.0983 124.476 53.0983 124.345C53.0983 124.232 52.9623 124.194 52.8068 124.251C52.6512 124.326 52.5152 124.288 52.5152 124.194C52.5152 124.1 52.1653 124.044 51.7376 124.063C51.31 124.082 50.9018 124.006 50.8435 123.931C50.7851 123.837 50.6491 123.8 50.5519 123.856C50.4547 123.931 50.3769 123.894 50.3769 123.781C50.3769 123.668 50.2603 123.631 50.1048 123.687C49.9493 123.744 49.7743 123.687 49.6966 123.574C49.5799 123.405 49.5022 123.405 49.3856 123.593C49.2495 123.8 49.2106 123.762 49.2106 123.481C49.2106 123.18 49.1717 123.161 49.0357 123.368C48.8996 123.574 48.7441 123.593 48.3942 123.462C48.1415 123.349 47.5583 123.236 47.0723 123.218C46.5864 123.18 46.081 123.086 45.9643 122.973C45.7894 122.823 45.7116 122.842 45.7116 123.03C45.7116 123.218 45.6533 123.218 45.5561 123.086C45.4395 122.898 44.6231 122.71 43.379 122.598C43.1069 122.579 42.8347 122.466 42.757 122.354C42.6598 122.241 42.6015 122.26 42.6015 122.429C42.6015 122.635 42.5431 122.635 42.3099 122.448C42.1544 122.316 42.0183 122.278 42.0183 122.335C42.0183 122.41 41.8433 122.372 41.6295 122.26C41.3379 122.109 41.2408 122.109 41.2408 122.297C41.2408 122.466 41.1824 122.466 41.0464 122.26C40.9492 122.109 40.852 122.072 40.852 122.185C40.852 122.504 40.2688 122.41 40.2494 122.091C40.2494 121.903 40.2105 121.865 40.1327 122.016C40.0939 122.147 39.9578 122.26 39.8606 122.26C39.744 122.26 39.7245 122.166 39.7829 122.072C39.8412 121.959 39.8217 121.884 39.7051 121.884C39.6079 121.884 39.4718 121.959 39.4135 122.053C39.2386 122.316 38.325 122.053 38.325 121.715C38.325 121.471 38.2861 121.471 38.15 121.677C37.9945 121.903 37.7612 121.884 36.5949 121.602C35.8368 121.396 35.2148 121.17 35.2148 121.076C35.2148 121.001 35.137 120.964 35.0204 121.039C34.9232 121.095 34.6705 120.982 34.4761 120.795C34.2817 120.607 34.0096 120.494 33.8929 120.532C33.7569 120.569 33.6597 120.513 33.6597 120.4C33.6597 120.288 33.543 120.194 33.3875 120.194C32.9793 120.194 32.0851 119.705 32.2406 119.574C32.299 119.499 32.1629 119.442 31.9296 119.442C31.6964 119.442 31.5603 119.367 31.6186 119.254C31.6769 119.142 31.5992 119.067 31.4437 119.067C31.2687 119.067 31.1326 118.973 31.1326 118.841C31.1326 118.729 31.0743 118.691 30.9966 118.747C30.8216 118.916 29.7525 117.94 29.8886 117.733C29.9469 117.639 29.8303 117.62 29.6553 117.696C29.422 117.771 29.3637 117.752 29.4609 117.602C29.5387 117.47 29.4415 117.32 29.2277 117.226C28.2557 116.869 25.9036 113.376 25.1261 111.122C23.9987 107.835 23.9792 105.017 25.0678 102.275C26.1758 99.5329 27.8086 97.7298 30.3357 96.4713C33.3875 94.9312 35.4869 94.7621 39.1219 95.7013ZM93.7252 96.7155C94.9692 96.8282 95.5718 96.9972 96.3299 97.4856C97.7101 98.3871 97.6906 98.5938 95.9606 100.566C94.7748 101.937 94.561 102.519 95.0275 103.214C95.533 103.966 96.4077 103.74 97.7878 102.501C98.8181 101.561 98.8764 101.524 98.9347 101.956C99.0319 102.576 98.6237 104.022 98.1961 104.623C97.9822 104.905 97.6518 105.487 97.4379 105.938C97.2241 106.426 96.5243 107.29 95.7273 108.004C94.6582 109.018 93.9195 109.469 92.1117 110.314C90.0124 111.309 89.4292 111.535 88.6711 111.61C88.5156 111.629 88.3212 111.704 88.2629 111.779C88.2046 111.873 87.7964 111.948 87.3298 111.967C86.8827 111.986 86.4745 112.042 86.4357 112.117C86.3968 112.173 86.0663 112.211 85.7164 112.192C85.3665 112.173 85.0166 112.249 84.9389 112.361C84.8222 112.53 84.7834 112.512 84.7834 112.343C84.7834 112.211 84.6862 112.155 84.589 112.211C84.4723 112.286 84.4335 112.418 84.4918 112.512C84.5695 112.605 84.5307 112.681 84.414 112.681C84.3168 112.681 84.1613 112.587 84.0836 112.474C84.0058 112.324 83.9086 112.343 83.792 112.512C83.6754 112.699 83.6171 112.699 83.6171 112.549C83.6171 112.38 83.481 112.361 83.1311 112.493C82.8201 112.605 82.6451 112.605 82.6257 112.493C82.5674 112.004 82.4896 111.535 82.4702 111.328C82.4702 111.216 82.2758 111.309 82.062 111.554C81.7704 111.892 81.7315 112.042 81.887 112.249C82.062 112.455 82.0425 112.474 81.7898 112.38C81.576 112.305 81.4788 112.343 81.5177 112.512C81.5565 112.662 81.4205 112.775 81.2067 112.775C80.8762 112.775 80.8373 112.624 80.8762 110.896C80.8956 108.943 80.6429 106.877 80.3514 106.689C80.2542 106.633 80.0403 106.313 79.8654 106.013C79.7099 105.694 78.9712 104.736 78.252 103.853C76.7552 102.031 75.861 100.322 76.2692 100.078C76.4053 99.9837 76.7941 99.9085 77.144 99.9085C77.4939 99.9085 78.7185 99.7771 79.8654 99.608C81.8676 99.3263 82.684 99.1009 87.8936 97.2978C90.1679 96.5089 90.7899 96.4526 93.7252 96.7155ZM92.4033 113.995L92.7338 114.559L92.2673 114.24C92.0146 114.052 91.7813 113.789 91.7813 113.657C91.7813 113.263 92.0534 113.413 92.4033 113.995ZM91.0037 114.371C91.0037 114.465 90.9649 114.559 90.926 114.559C90.8677 114.559 90.7705 114.465 90.7122 114.371C90.6538 114.258 90.6927 114.183 90.7899 114.183C90.9065 114.183 91.0037 114.258 91.0037 114.371ZM25.5537 117.32L26.0786 117.996L25.3788 118.409C24.4263 118.954 22.6768 120.964 21.977 122.316C21.4716 123.274 21.355 123.368 21.0245 123.199C20.5386 122.936 20.5386 122.429 21.044 120.832C21.3939 119.724 21.6271 119.386 22.949 118.09C23.7654 117.282 24.5624 116.625 24.7179 116.625C24.8734 116.644 25.2427 116.944 25.5537 117.32ZM25.787 123.011C25.7287 123.105 25.5537 123.199 25.4371 123.199C25.301 123.199 25.3205 123.124 25.4954 123.011C25.8648 122.786 25.9425 122.786 25.787 123.011ZM26.9728 124.194C27.0311 124.645 26.7201 124.589 26.6034 124.119C26.5451 123.894 26.584 123.762 26.7006 123.8C26.8173 123.837 26.9339 124.025 26.9728 124.194ZM27.381 124.363C27.3227 124.514 27.2643 124.457 27.2643 124.251C27.2449 124.044 27.3032 123.931 27.3615 124.006C27.4199 124.063 27.4393 124.232 27.381 124.363ZM20.0526 126.392C20.2859 126.505 20.4803 126.918 20.5969 127.556C20.6941 128.101 20.9857 129.604 21.2189 130.9C21.4522 132.196 21.7632 133.886 21.9187 134.656C22.3658 137.023 22.463 139.201 22.1325 139.615C21.8993 139.934 21.7826 139.953 21.2189 139.746C20.8496 139.633 20.4219 139.408 20.2664 139.258C20.0915 139.108 19.3139 138.394 18.5558 137.699C17.7783 137.004 17.1368 136.328 17.1368 136.196C17.1368 136.084 17.0007 135.971 16.8452 135.971C16.6897 135.971 16.5536 135.877 16.5536 135.783C16.5536 135.67 16.6703 135.595 16.8063 135.595C16.923 135.595 16.8258 135.483 16.5731 135.351C16.3204 135.238 16.126 135.051 16.1454 134.957C16.1843 134.863 16.0871 134.731 15.9316 134.637C15.7955 134.543 15.6595 134.393 15.6595 134.28C15.64 134.187 15.6206 133.999 15.6011 133.886C15.6011 133.792 15.504 133.736 15.4068 133.792C15.1929 133.924 13.8322 131.275 13.6962 130.449C13.5406 129.529 14.1044 127.876 14.7847 127.256C15.6595 126.448 17.1951 125.979 18.5558 126.11C19.1779 126.148 19.8388 126.279 20.0526 126.392Z"
				fill="black" />
			<path d="M54.3035 55.0372C54.148 55.3941 54.1092 55.4128 53.837 55.1311C53.5649 54.8869 53.5066 54.8869 53.4094 55.1123C53.351 55.2626 53.4094 55.3753 53.526 55.3377C53.6426 55.3189 53.8176 55.5068 53.8953 55.7697C54.012 56.1641 54.0314 56.1829 54.0703 55.8636L54.0897 55.488L54.2647 55.8636C54.4007 56.1829 54.4202 56.1454 54.4007 55.657C54.4007 55.3377 54.4591 54.9808 54.5368 54.8494C54.6146 54.7367 54.634 54.6428 54.5562 54.6428C54.4979 54.6428 54.3813 54.8306 54.3035 55.0372Z"
				fill="black" />
			<path d="M55.6448 55.1311C55.6448 55.3377 55.7031 55.3941 55.7614 55.2438C55.8197 55.1123 55.8003 54.9433 55.742 54.8869C55.6837 54.8118 55.6254 54.9245 55.6448 55.1311Z"
				fill="black" />
			<path d="M61.4764 55.2626C61.2237 55.657 61.2431 55.657 61.5736 55.3565C61.768 55.1687 61.8846 54.9808 61.8263 54.9433C61.768 54.8869 61.6125 55.0372 61.4764 55.2626Z"
				fill="black" />
			<path d="M59.8241 55.7134C59.7075 55.9763 59.7269 55.9951 59.9213 55.8261C60.0574 55.6946 60.1157 55.5443 60.0574 55.488C59.9991 55.4316 59.8824 55.5255 59.8241 55.7134Z"
				fill="black" />
			<path d="M53.2927 55.9763C53.2927 56.0702 53.3899 56.1078 53.4871 56.0514C53.6037 55.9951 53.6815 55.9012 53.6815 55.8448C53.6815 55.8073 53.6037 55.7697 53.4871 55.7697C53.3899 55.7697 53.2927 55.8636 53.2927 55.9763Z"
				fill="black" />
			<path d="M64.2756 97.4668C64.3339 97.5607 64.4311 97.6546 64.4894 97.6546C64.5283 97.6546 64.5671 97.5607 64.5671 97.4668C64.5671 97.3541 64.4699 97.279 64.3533 97.279C64.2561 97.279 64.2172 97.3541 64.2756 97.4668Z"
				fill="black" />
			<path d="M63.7896 97.7298C63.7896 97.7673 63.9257 97.8612 64.1006 97.9176C64.2561 97.9739 64.3339 97.9551 64.2756 97.8425C64.1589 97.6546 63.7896 97.5795 63.7896 97.7298Z"
				fill="black" />
			<path d="M64.3728 100.416C64.3728 100.528 64.5283 100.735 64.7227 100.866C65.0337 101.111 65.0337 101.111 64.7615 100.754C64.606 100.547 64.4505 100.341 64.4311 100.303C64.3922 100.265 64.3728 100.303 64.3728 100.416Z"
				fill="black" />
			<path d="M64.8587 101.73C64.9365 101.918 65.0531 102.294 65.1114 102.576C65.1503 102.876 65.2669 103.102 65.3641 103.102C65.5585 103.102 65.5002 102.425 65.2864 102.238C65.2086 102.162 65.1503 101.937 65.1503 101.749C65.1503 101.561 65.0531 101.411 64.9365 101.411C64.8004 101.411 64.781 101.543 64.8587 101.73Z"
				fill="black" />
			<path d="M75.6083 96.6592C75.7444 96.7155 75.9193 96.6967 75.9776 96.6404C76.0554 96.584 75.9388 96.5277 75.7249 96.5465C75.5111 96.5465 75.4528 96.6028 75.6083 96.6592Z"
				fill="black" />
			<path d="M68.7076 116.099C68.3577 116.174 67.9884 116.437 67.8717 116.644C67.5024 117.301 67.8329 117.733 69.1547 118.315C70.807 119.029 71.4873 119.517 72.0705 120.4C72.6148 121.245 72.8869 121.302 73.4701 120.701C73.9172 120.231 74.0338 119.254 73.7228 118.466C73.1396 116.982 70.3404 115.667 68.7076 116.099Z"
				fill="black" />
			<path d="M66.997 120.795C66.1028 121.095 65.9084 121.339 65.9667 121.94C66.0251 122.579 66.0834 122.617 67.9106 123.293C69.1741 123.743 69.2324 123.762 70.01 123.462C70.4376 123.293 70.7875 123.105 70.7875 123.03C70.7681 122.71 69.8545 121.414 69.4268 121.095C68.8048 120.663 67.7551 120.513 66.997 120.795Z"
				fill="black" />
			<path d="M92.1506 97.8049C91.0621 98.4811 89.643 99.9837 89.643 100.453C89.643 100.96 90.7316 101.787 91.3925 101.787C92.52 101.787 93.9195 100.096 93.9195 98.744C93.9195 97.1475 93.5502 96.9597 92.1506 97.8049Z"
				fill="black" />
			<path d="M89.2348 104.097C87.9519 104.754 87.2521 105.844 87.1549 107.29C87.0771 108.436 87.0966 108.492 87.6992 108.98C88.5156 109.657 89.4292 109.638 91.548 108.905C93.4724 108.267 94.0362 107.835 94.3083 106.839C94.6193 105.731 93.9779 104.567 92.7143 103.928C91.8785 103.515 90.2262 103.59 89.2348 104.097Z"
				fill="black" />
			<path d="M82.2563 110.051C82.0814 110.164 82.062 110.239 82.198 110.239C82.3147 110.239 82.4896 110.145 82.5479 110.051C82.7034 109.826 82.6257 109.826 82.2563 110.051Z"
				fill="black" />
			<path d="M122.752 62.3734C124.346 63.3501 125.435 65.9609 125.299 68.4402C125.202 70.1306 124.735 71.22 123.394 72.948C121.975 74.8074 121.741 75.4085 121.741 77.3806C121.741 79.3716 121.955 79.9163 123.782 82.5458C125.979 85.7201 126.426 87.0161 126.251 89.5141C126.115 91.6741 125.629 92.8762 124.463 94.0407C123.471 95.0362 122.83 95.3367 123.102 94.6981C123.374 94.0219 123.433 91.6178 123.219 90.2091C122.908 88.2933 122.15 86.8282 120.575 85.0815C118.553 82.8463 117.368 80.1229 117.368 77.6436C117.368 75.8593 117.931 74.1501 119.059 72.5535C119.545 71.8586 120.245 70.8443 120.614 70.3372C121.955 68.4214 122.344 65.9421 121.722 63.5192C121.45 62.5049 121.45 62.2795 121.664 62.1481C122.033 61.9227 122.033 61.9227 122.752 62.3734Z"
				fill="black" />
			<path d="M90.2262 19.9891C90.0901 20.1581 90.0124 20.3272 90.0707 20.3647C90.129 20.4211 90.2845 20.3459 90.4206 20.1769C90.5566 20.0079 90.6344 19.8388 90.5761 19.8013C90.5178 19.7449 90.3623 19.82 90.2262 19.9891Z"
				fill="black" />
			<path d="M113.655 81.6443C113.286 83.8042 113.558 85.9642 114.335 87.0536C114.549 87.3541 115.366 88.3308 116.163 89.2136C117.99 91.2233 118.534 92.3315 118.67 94.2849C118.826 96.257 118.515 97.3089 117.446 98.6612C116.96 99.281 116.61 99.8821 116.668 100.032C116.726 100.183 116.707 100.295 116.61 100.295C116.532 100.295 116.279 100.671 116.046 101.122C115.541 102.08 115.191 102.249 112.8 102.643C109.262 103.225 106.482 104.108 105.432 104.991C105.102 105.273 104.499 106.118 104.111 106.85L103.372 108.184L104.072 108.916C104.927 109.837 107.746 111.189 109.884 111.715C116.143 113.255 126.193 112.429 130.256 110.043C131.539 109.292 131.947 108.823 131.947 107.996C131.947 107.207 131.558 106.625 130.392 105.592C128.389 103.826 126.076 103.075 121.178 102.624C119.467 102.474 118.009 102.305 117.931 102.249C117.854 102.211 117.718 101.779 117.64 101.328C117.582 100.859 117.426 100.427 117.309 100.352C116.901 100.107 117.854 99.9384 119.7 99.9384C123.122 99.9008 128.351 101.084 130.605 102.361C132.18 103.263 133.755 104.878 134.104 105.968L134.377 106.775L136.048 106.888C137.195 106.963 138.012 107.132 138.634 107.414C139.975 108.052 141.491 109.499 142.152 110.757C142.696 111.771 142.735 111.978 142.735 114.006C142.735 116.091 142.716 116.223 142.074 117.425C140.752 119.998 138.323 121.632 134.882 122.29C132.841 122.684 132.977 122.609 131.014 124.882C129.77 126.309 127.009 128.563 125.862 129.108C123.083 130.422 115.307 130.742 111.964 129.709C108.64 128.657 105.666 125.99 103.858 122.365C102.458 119.604 102.4 119.209 102.089 110.306C101.992 106.963 102.011 106.4 102.322 105.442C102.964 103.47 104.849 102.042 108.154 101.047C109.553 100.633 114.549 99.7318 115.463 99.7318C115.949 99.7318 115.988 99.6567 116.124 98.68C116.299 97.2525 116.085 95.2428 115.618 94.0595C115.346 93.3458 114.782 92.6508 113.499 91.3736C111.458 89.3639 110.759 88.143 110.603 86.2835C110.486 84.8185 110.797 83.5789 111.575 82.4143C112.1 81.6067 113.15 80.7615 113.616 80.7615C113.733 80.7615 113.752 81.0996 113.655 81.6443ZM134.415 114.42C134.474 116.617 134.552 118.439 134.571 118.458C134.59 118.495 135.057 118.383 135.601 118.233C137.506 117.688 138.731 116.148 138.75 114.326C138.75 112.635 137.778 111.396 135.99 110.795C134.182 110.194 134.299 109.893 134.415 114.42ZM130.703 113.387C130.644 113.781 130.586 114.476 130.586 114.946C130.586 115.96 129.634 120.13 128.973 122.027C128.72 122.778 128.603 123.398 128.7 123.398C128.973 123.398 129.964 122.308 130.528 121.388C131.616 119.604 131.947 118.251 131.947 115.565C131.947 113.405 131.908 113.067 131.597 112.898C131.014 112.56 130.839 112.673 130.703 113.387Z"
				fill="black" />
			<path d="M120.497 105.592C123.841 105.761 128.001 106.587 129.031 107.301C129.439 107.564 129.439 107.583 128.837 108.052C127.476 109.179 123.705 109.874 118.495 110.006C114.355 110.119 111.905 109.931 109.301 109.292C107.726 108.898 105.899 108.052 105.899 107.714C105.899 107.245 107.959 106.456 110.331 106.024C112.022 105.705 116.279 105.329 117.271 105.404C117.659 105.442 119.117 105.517 120.497 105.592Z"
				fill="black" />
			<path d="M86.63 116.813C86.5717 116.907 86.6495 117.001 86.8244 117.001C86.9994 117.001 87.0771 116.907 87.0188 116.813C86.9605 116.7 86.8633 116.625 86.8244 116.625C86.7855 116.625 86.6884 116.7 86.63 116.813Z"
				fill="black" />
			<path d="M86.0469 117.019C85.9691 117.132 85.9497 117.245 86.008 117.301C86.0469 117.357 86.1441 117.264 86.2024 117.094C86.3385 116.775 86.2218 116.719 86.0469 117.019Z"
				fill="black" />
			<path d="M81.6149 117.827C81.5371 118.015 81.5954 118.071 81.7704 117.996C81.9259 117.94 82.0036 117.827 81.9453 117.733C81.8092 117.508 81.7315 117.526 81.6149 117.827Z"
				fill="black" />
			<path d="M113.204 119.067C107.469 119.499 101.735 121.809 99.9854 124.363C98.3525 126.73 98.8385 129.359 101.366 131.895C102.726 133.266 103.543 133.755 105.953 134.675C111.338 136.741 122.554 137.023 127.938 135.238C130.854 134.262 134.333 131.595 135.558 129.397C136.044 128.533 136.141 128.157 136.141 127.049C136.141 126.129 136.025 125.509 135.753 124.983C134.47 122.41 129.688 120.156 123.895 119.348C121.465 119.01 115.77 118.86 113.204 119.067ZM124.614 121.959C127.938 122.56 131.204 123.969 132.545 125.378C133.206 126.073 133.323 126.317 133.323 126.993C133.323 128.383 131.962 129.942 129.921 130.881C123.428 133.905 113.281 134.111 106.322 131.369C104.262 130.562 103.348 129.96 102.629 129.021C101.54 127.556 101.696 126.411 103.212 124.889C104.709 123.405 108.188 122.222 112.815 121.621C114.234 121.433 123.195 121.677 124.614 121.959Z"
				fill="black" />
			<path d="M113.301 124.814C110.793 125.227 108.694 125.979 107.294 126.937C106.867 127.237 106.692 127.519 106.692 127.876C106.692 129.81 112.173 131.069 119.618 130.843C124.284 130.712 126.908 130.111 128.133 128.927C129.513 127.575 128.288 126.317 124.595 125.227C123.487 124.889 122.67 124.833 118.549 124.795C115.925 124.758 113.573 124.777 113.301 124.814Z"
				fill="black" />
			<path d="M25.3205 124.006C25.301 124.213 25.2038 124.288 25.0678 124.213C24.9317 124.119 24.9123 124.157 25.0095 124.307C25.2038 124.607 25.5732 124.269 25.4371 123.913C25.3594 123.762 25.3205 123.781 25.3205 124.006Z"
				fill="black" />
			<path d="M27.3227 125.603C27.4004 125.659 27.5948 125.734 27.7503 125.753C27.9253 125.772 28.003 125.753 27.9447 125.678C27.867 125.622 27.6726 125.547 27.5171 125.528C27.3421 125.509 27.2644 125.528 27.3227 125.603Z"
				fill="black" />
			<path d="M29.9663 125.81C29.9663 125.922 30.0441 126.054 30.1607 126.11C30.2773 126.166 30.2968 126.091 30.2385 125.941C30.1024 125.603 29.9663 125.547 29.9663 125.81Z"
				fill="black" />
			<path d="M31.9685 126.129C31.8907 126.335 31.813 126.354 31.7158 126.204C31.6186 126.054 31.5409 126.073 31.4631 126.298C31.3853 126.467 31.4048 126.561 31.502 126.486C31.5992 126.429 31.7158 126.486 31.7547 126.598C31.7936 126.711 31.9296 126.598 32.0657 126.317C32.1823 126.054 32.2406 125.828 32.1823 125.828C32.1435 125.828 32.0463 125.96 31.9685 126.129Z"
				fill="black" />
			<path d="M35.9146 126.542C35.8562 126.636 35.9729 126.843 36.1867 126.993C36.4783 127.256 36.556 127.256 36.6532 127.03C36.7115 126.88 36.6532 126.786 36.5172 126.824C36.3811 126.843 36.3033 126.749 36.3422 126.617C36.3811 126.373 36.0701 126.298 35.9146 126.542Z"
				fill="black" />
			<path d="M35.4286 127.124C35.2536 127.237 35.2342 127.331 35.3897 127.406C35.5063 127.481 35.6035 127.444 35.6035 127.331C35.6035 127.218 35.7007 127.181 35.8368 127.256C35.9729 127.331 35.9923 127.312 35.9145 127.181C35.759 126.918 35.7785 126.918 35.4286 127.124Z"
				fill="black" />
			<path d="M69.7184 127.894C69.7767 127.988 69.8739 128.082 69.9322 128.082C69.9711 128.082 70.01 127.988 70.01 127.894C70.01 127.782 69.9128 127.707 69.7961 127.707C69.699 127.707 69.6601 127.782 69.7184 127.894Z"
				fill="black" />
			<path d="M41.9211 128.082C41.9794 128.176 42.0766 128.27 42.1349 128.27C42.1738 128.27 42.2127 128.176 42.2127 128.082C42.2127 127.97 42.1155 127.894 41.9989 127.894C41.9017 127.894 41.8628 127.97 41.9211 128.082Z"
				fill="black" />
			<path d="M62.3511 128.589C62.1956 128.965 62.5261 129.341 62.7205 129.003C62.8371 128.852 62.7982 128.815 62.6233 128.927C62.4483 129.021 62.4289 128.965 62.5261 128.665C62.6816 128.195 62.5261 128.12 62.3511 128.589Z"
				fill="black" />
			<path d="M50.7657 129.021C50.7657 129.115 50.8629 129.209 50.9795 129.209C51.0767 129.209 51.1156 129.115 51.0573 129.021C50.999 128.909 50.9018 128.834 50.8434 128.834C50.8046 128.834 50.7657 128.909 50.7657 129.021Z"
				fill="black" />
			<path d="M57.1416 129.528C57.2777 129.585 57.4526 129.566 57.5109 129.51C57.5887 129.453 57.472 129.397 57.2582 129.416C57.0444 129.416 56.9861 129.472 57.1416 129.528Z"
				fill="black" />
		</svg>
