<svg xmlns="http://www.w3.org/2000/svg" width="800" height="800" fill="none"><rect width="800" height="800" fill="#fff" rx="72"/><path fill="#000" d="M394.634 77.208c-19.914 1.737-47.497 10.326-64.855 20.195-13.206 7.494-30.458 24.033-37.38 35.821-3.727 6.214-12.46 26.409-16.4 37.466-3.301 9.686-11.715 38.379-13.844 47.517-5.112 22.663-3.621 40.116 5.857 64.058 2.236 5.848 4.153 11.331 4.153 12.153 0 1.371-3.727 7.676-19.169 32.531-17.572 28.328-28.647 49.619-36.954 71.276-6.389 16.814-8.093 22.571-12.992 43.589-5.325 22.753-6.922 37.648-6.283 58.483.639 19.464 2.875 32.805 8.413 50.35 2.343 7.219 3.94 13.433 3.621 13.981-.426.457-1.491.822-2.556.822-2.982 0-18.317 8.59-26.092 14.713-22.257 17.544-33.013 43.314-29.499 70.819 2.663 20.56 12.141 35.638 34.079 54.188 13.844 11.697 20.66 15.991 28.008 17.545 7.029 1.462 12.034-.823 15.761-7.036 2.556-4.204 2.663-5.118 2.556-20.012 0-12.611-.532-18.002-2.769-28.785-2.556-11.879-3.514-22.205-3.088-32.074 0-1.828 1.065-4.295 2.13-5.483 2.13-2.193 2.13-2.193 3.727-.366 1.597 1.737 1.597 1.736 1.065-.457-.533-2.01-.426-2.101.639-.639.639.822 1.597 1.37 2.236 1.096 1.065-.639 1.278.549.959 4.021-.107 1.828 0 2.01 1.384.914.852-.731 1.278-1.462.852-1.736-.319-.275-.745-1.28-.958-2.285-.213-1.279.213-1.096 1.491.914 1.278 1.827 1.384 2.741.532 3.015-2.556.731-.958 1.645 2.45 1.28 2.875-.274 3.727 0 4.153 1.37.319 1.097.532.731.745-1.096.107-1.554.213-3.198 0-3.655-.106-.549.426-.366 1.172.182 1.704 1.462 2.236 3.93.852 3.93-.639 0-.746.457-.32 1.005.426.731 1.278.274 2.237-1.097 1.384-2.193 1.384-2.193.745.549l-.745 2.741 2.342-2.284 2.237-2.285-1.065 2.559c-.852 2.01-.746 2.558.213 2.193.745-.183 1.278-.914 1.065-1.462-.107-.64.213-.914.745-.64.533.366 1.278-.183 1.491-1.005.426-1.462.533-1.462.639-.091 0 .822-.426 1.827-.958 2.101-1.385.731-1.385 3.199.106 3.199.533 0 .746-.457.426-.914-.319-.549-.319-.914.213-1.005.426 0 1.704-.183 2.663-.366.958-.183 2.662.457 3.833 1.462 1.172.914 2.343 1.279 2.556.823.213-.366 1.704-1.097 3.408-1.463 2.875-.548 3.088-.456 2.556 1.828-.745 3.107 0 3.016 1.384-.091.746-1.828 1.278-2.193 1.917-1.28.746 1.006 1.065 1.006 1.598 0 .319-.731.426-.456.319.549-.213 1.005-.852 1.736-1.597 1.645-.746-.183-.959.365-.533 1.279.426 1.005.852 1.188 1.172.457.213-.64 1.384-1.097 2.449-1.097 1.385 0 1.917-.365 1.385-1.188-.426-.548-.426-.822.106-.457.426.366 1.491.274 2.343-.365 1.065-.731 1.81-.731 2.769.091.958.914.852 1.005-.533.548-2.023-.731-4.792 2.65-2.981 3.656.638.365.958.091.851-.549-.213-.548.32-1.279 1.172-1.553.852-.183 1.171 0 .745.548-.319.457.107 1.188 1.065 1.462.852.274 1.385.183.959-.274-.32-.457-.107-1.827.426-3.015.958-2.011 1.065-2.011 1.065.548.106 2.376.319 2.559 1.491 1.279 1.917-2.102 5.005-2.741 5.005-1.188 0 1.645 1.704 1.828 2.556.183.319-.548.532.366.319 2.193-.213 1.919.213 3.29.959 3.29.639 0 1.065-1.005.852-2.193-.107-1.188.213-2.102.745-2.102.533 0 .959.822.959 1.919 0 1.005.532 1.553 1.065 1.279.639-.365.852-1.005.532-1.462-.426-.457-.106-.822.533-.822.745 0 .958.822.532 2.01-.639 1.919-.426 1.828 2.023-.548 1.491-1.462 2.769-2.285 2.769-1.828 0 .548-.532 1.371-1.278 2.011-.958.822-.745 1.005 1.065.639 1.278-.183 2.556 0 2.876.549.426.456.106.822-.533.822s-.852.457-.426 1.005c.426.731 1.172.366 2.024-1.005 1.065-1.736 1.384-1.828 1.916-.548.852 1.827-.213 4.386-1.49 3.655-.533-.274-.639.274-.213 1.096.532 1.28.852 1.097 2.129-.913.852-1.371 1.172-2.833.852-3.29-.319-.548-.213-.914.426-.914.533 0 1.278.731 1.491 1.554.426 1.462.533 1.462.639-.092.107-1.462.32-1.462 2.237.457 1.065 1.188 2.023 1.736 2.13 1.097 0-.549-.639-1.28-1.278-1.462-.746-.275.532-.275 2.875 0 2.343.274 4.899 1.096 5.644 1.919.746.913 1.278 1.005 1.278.365 0-.64.639-1.096 1.385-1.096.958 0 1.384 1.005 1.278 2.741-.107 1.462.213 2.467.745 2.193s.639-1.188.426-2.01c-.319-.914-.106-2.193.426-2.924.852-1.097 1.065-.823 1.065 1.096 0 1.462.426 2.559.958 2.559.533 0 .746-.914.32-2.102-.533-1.828-.426-1.919 1.171-.731 1.172.822 1.811.914 1.811.183 0-.549.532-1.005 1.171-1.005.533 0 .852.365.533.731-.213.365 0 1.279.639 2.01.852 1.096.958 1.097.426-.183-.32-.914-.107-1.827.426-2.102.639-.365 1.065-.091 1.065.366 0 .548.958 1.005 2.023 1.005 1.171 0 2.343.548 2.556 1.097.426.913.639.913.639 0 .106-.549 1.384-1.097 2.875-1.097s2.45.366 2.13.823c-.319.365.639.548 2.023.274 1.491-.183 2.663 0 2.663.365 0 .457 1.171.823 2.662.823 1.491 0 2.663-.366 2.663-.823 0-.457.639-.365 1.384.092.639.456 3.195.731 5.431.639 2.343-.183 5.112.183 6.283.731 1.598.64 2.343.64 2.982-.274.746-1.005.959-.914.959.457s.319 1.462 1.491.64c1.171-.914 1.597-.731 2.023.548.426 1.279.533 1.279.639.183.107-1.188 1.704-1.371 10.011-1.28 5.324.092 10.223-.091 10.756-.274.532-.274 3.833-.639 7.454-.822 3.515-.183 6.922-.731 7.455-1.188.639-.548 2.236-.914 3.621-.914 2.023 0 2.343.366 1.81 1.919-.532 1.371-.426 1.736.533 1.279.638-.365 1.064-1.37.745-2.284-.319-1.188.213-1.645 2.13-1.554 1.704 0 2.236.275 1.597.823-1.278 1.096-.532 3.472 1.065 3.472.639 0 .639-.457-.106-1.279-.959-1.005-.639-1.553 2.023-2.467 1.704-.731 3.195-1.645 3.195-2.102 0-.366.745-.274 1.597.366.852.548 2.024.822 2.556.548.533-.366 1.385-.092 1.811.457.426.731.958.639 1.597-.183.852-1.097 1.172-1.005 2.024.091.852 1.097 1.065.914 1.065-.913 0-1.554.319-1.919.851-1.097.533.64 1.704.914 2.769.548 1.704-.548 1.917-.274 1.278 2.468l-.532 3.106 1.171-3.015c1.278-3.198 5.751-5.026 7.242-2.924.426.639.958.731 1.171.183.213-.457 4.473-1.097 9.478-1.188 5.006-.183 9.265-.549 9.585-.823.319-.274 4.153-2.558 8.52-5.026 9.584-5.3 20.127-13.798 24.6-19.829 1.917-2.467 4.686-7.676 6.283-11.697 2.982-7.401 5.431-10.508 7.774-9.777.639.182 1.917-.275 2.663-1.097 1.171-1.279 1.277-1.188.639.823-.32 1.279-.32 2.01.106 1.644.532-.365 1.597-.182 2.556.457 1.491.914 1.491.914.319-.457-1.171-1.279-.958-1.553 2.024-2.101 3.301-.64 3.408-.731 1.384-2.011-2.023-1.279-2.023-1.37.107-1.005 1.065.183 2.982 1.097 4.153 2.01 2.023 1.737 2.13 1.737 2.875 0 .426-.913.852-1.188.852-.639.107.639.852 1.188 1.811 1.188 1.065 0 1.491-.457 1.065-1.462-.32-.731-.213-1.097.426-.823s1.065 1.28 1.171 2.102c0 .914.32 1.096.533.457.319-.64 1.916-.914 3.94-.731l3.408.457-3.408-1.097c-1.917-.548-3.514-1.371-3.514-1.827 0-.457.958-.366 2.023.182 2.662 1.188 4.686 1.188 3.834 0-.32-.457 0-.639.958-.365.852.274 1.278 1.096.959 1.827-.32.731 0 1.28.532 1.28.639 0 .959-1.005.639-2.285-.213-1.279 0-2.284.639-2.284.533 0 1.065.548 1.065 1.096.107.731.639.457 1.597-.548.746-.914 1.917-1.371 2.556-1.005.639.274 1.172-.092 1.172-1.005 0-1.462.213-1.462 2.13.091 1.704 1.279 2.023 1.371 1.597.366-.426-1.006.533-1.828 3.621-2.833 3.834-1.28 4.153-1.28 3.621 0-.426.914-.213 1.188.532.731.746-.366 1.278-1.28 1.278-2.011 0-.913.533-1.096 1.278-.731.746.457 2.237.823 3.195.823 1.384.091 1.597-.183.852-.914-.852-.822-.533-1.279 1.065-1.645 1.278-.274 2.556.092 3.195 1.005.532.914 1.065 1.097 1.065.64 0-.548-.746-1.919-1.704-3.107l-1.811-2.102 2.876 1.554c1.491.914 2.769 2.01 2.769 2.558 0 .549.319.732.639.366.319-.274.213-1.005-.213-1.645-1.385-2.01-1.172-5.209.319-4.752.852.275 1.384.914 1.278 1.554-.32 2.558.213 5.117 1.065 5.117.532 0 .852-1.279.639-2.741-.32-1.645 0-2.559.532-2.285.639.366 1.065 1.371 1.065 2.285 0 .914.426 2.01 1.065 2.284.639.366.746-.091.32-1.096-.639-1.462-.533-1.462 1.171-.366 1.598 1.188 1.811 1.097 1.278-1.005-.213-1.371-.852-3.198-1.384-4.112-2.024-3.381-.852-4.478 13.738-13.067 11.182-6.488 19.595-13.89 25.558-22.48 7.987-11.422 9.691-19.646 6.709-31.709-3.94-16.082-16.826-25.495-39.19-28.784-12.885-1.828-22.683-.64-41 4.934-13.632 4.112-26.304 6.945-27.369 6.031-.32-.274-.533-2.741-.533-5.574 0-8.498-3.621-21.2-8.093-28.419-7.562-12.428-23.429-23.667-37.7-26.774l-5.857-1.28-1.704-7.036c-.958-3.838-2.982-10.326-4.473-14.438-3.407-9.686-3.727-11.879-4.472-29.515-1.065-27.049-2.45-38.289-7.029-59.671-1.278-5.666-2.023-10.6-1.704-10.875.32-.274 2.13 0 4.047.549 4.899 1.462 14.59 1.279 21.192-.457 6.71-1.736 12.034-4.478 16.72-8.681 4.047-3.747 13.312-16.723 15.761-22.297 1.278-2.65 3.302-4.843 6.496-6.762 5.858-3.655 13.419-12.062 17.466-19.464 6.283-11.514 10.117-30.703 8.413-41.669-1.811-11.148-11.821-22.023-29.499-32.166-5.006-2.924-8.946-5.757-9.159-6.853-.213-1.005-1.171-6.123-2.13-11.423-1.704-10.326-6.389-25.22-10.01-32.165-3.089-6.031-11.076-16.357-16.401-21.383-5.218-4.843-18.743-14.073-27.475-18.824-19.595-10.51-48.775-16.632-70.287-14.713Zm17.678 11.697c27.476 4.112 47.391 12.245 64.643 26.409 12.353 10.234 17.891 20.652 22.151 41.669 1.278 6.305 3.195 13.524 4.366 16.174 2.556 6.123 9.797 12.976 19.382 18.55 7.668 4.386 11.395 7.311 9.478 7.311-4.26 0-20.447 3.107-23.748 4.569-7.561 3.289-10.65 8.498-8.52 14.163 1.598 4.021 10.65 12.611 15.016 14.164 3.301 1.188 3.301 1.28 2.769 6.945-1.065 11.331-9.798 22.662-24.494 31.526-15.548 9.321-34.717 11.423-66.772 7.311-4.367-.549-11.182-1.28-15.229-1.554-3.94-.274-7.774-1.005-8.52-1.645-.745-.639-1.917-1.005-2.556-.822-.745.274-2.981-.274-5.111-1.188l-3.834-1.553.852-5.575c.958-6.122.745-29.881-.213-35.912l-.639-3.838 4.047-.548c23.216-3.016 31.522-5.666 41.213-13.342 12.034-9.412 20.66-21.931 23.749-34.176 2.129-8.589 1.277-23.667-1.704-30.977-4.58-11.24-14.697-21.84-33.653-35.273-11.395-8.133-25.878-19.83-27.262-22.114-.852-1.37-.639-1.645 2.023-1.645 1.704 0 7.348.64 12.566 1.371Zm-46.431 42.492c.426.548.532 4.843.213 9.412-.533 10.417 2.129 37.009 5.537 55.102 4.686 24.398 6.39 39.476 6.39 56.564.106 17.819-1.065 23.667-6.39 33.079-5.857 10.418-23.855 22.023-37.592 24.216-22.258 3.564-46.326-11.879-52.928-34.085-.852-3.015-1.491-5.939-1.278-6.488.213-.548 5.431 4.021 11.395 10.143 12.034 12.245 17.784 16.449 26.73 19.373 18.317 6.031 39.935-7.31 46.538-28.693 3.621-11.606 1.172-40.573-7.348-86.08-1.81-9.229-2.236-16.266-2.343-31.526-.106-10.783.213-20.378.746-21.383.639-1.371 1.597-1.645 5.218-1.188 2.343.274 4.686 1.005 5.112 1.554Zm61.66 28.419c6.07 1.827 6.922 5.665 2.236 10.234-2.768 2.742-3.088 3.838-3.407 9.869-.32 6.305-.533 6.762-2.769 7.037-3.728.456-7.348-3.016-9.372-8.864-.958-2.833-2.343-6.214-3.195-7.493-2.023-3.473-.213-7.585 4.154-9.321 7.028-2.742 7.667-2.833 12.353-1.462Zm108.518 47.974c3.834 2.285 2.982 4.752-2.129 6.762-7.136 2.833-18.424 2.011-19.702-1.37-.746-1.919 2.662-4.387 7.774-5.483 7.029-1.645 11.182-1.645 14.057.091Zm8.413 23.85c-.638 10.509-2.662 16.814-7.135 22.023l-3.195 3.746-3.194-1.553c-2.13-1.005-2.982-2.011-2.556-2.924.319-.731 1.278-4.661 2.13-8.681.852-4.021 1.704-7.859 2.023-8.407.533-1.462 11.395-13.068 12.034-13.068.319 0 .213 4.021-.107 8.864Zm-15.867 29.699c.213 1.827-.746 3.381-4.047 6.213-4.792 4.113-8.094 5.483-12.886 5.483-2.982 0-2.875-.183 5.218-7.31 4.473-4.021 8.946-7.219 9.798-7.036.852.091 1.704 1.279 1.917 2.65Zm-131.841 26.134c0 1.097-.319 1.097-1.597.183-1.278-.914-1.598-.914-1.598 0 0 .731-.319 1.005-.639.64-.958-.823.32-2.193 2.237-2.193.852 0 1.597.639 1.597 1.37Zm-5.751 6.031c-.532 2.65-.532 2.742.746.731.745-1.096 1.704-1.736 2.13-1.462.426.366.745.183.745-.365 0-.64-.426-1.097-1.065-1.097-2.236 0-.958-1.371 1.385-1.462 1.491-.091 2.556.366 2.556 1.097 0 .639-.426 1.005-.959.731-.426-.274-.852.365-.852 1.462 0 1.736.213 1.827 1.598.548.851-.731 1.597-1.736 1.597-2.284 0-.549.745-.64 1.81-.366 1.172.366 1.491.274.959-.457-.852-1.279-.533-1.371 1.917-.548.958.274 1.704.914 1.704 1.462 0 .457-.426.548-1.065.274-.639-.365-.746.091-.32 1.005.426.914.213 1.371-.426 1.005-.532-.274-1.065.092-1.065.823 0 .822.426 1.005 1.065.457.533-.457 1.811-.64 2.769-.366 1.385.366 1.385.274.213-.457-1.065-.731-1.171-1.279-.106-2.558 1.065-1.462 1.171-1.462.639-.183-.32.914-.107 1.645.426 1.645.639 0 1.064-.549 1.171-1.188 0-.823.213-.823.532 0 .32.639 0 2.01-.638 3.198-1.172 2.01-1.065 2.01.425.366.959-1.006 1.704-2.65 1.811-3.656.106-1.644.213-1.644.958.366.746 1.919.852 2.01 1.065.457l.107-1.828.958 1.828c.533 1.005.959 1.279.959.64.106-.549.532-1.097 1.171-1.097.533 0 .746.731.426 1.553-.532 1.554-.532 1.554.959 0 2.342-2.467 3.301-1.827 1.278.823-.959 1.371-1.278 2.102-.639 1.827 1.384-.731 1.49-.365.532 1.737-.532 1.188-.852 1.279-1.597.274-.639-.823-.959-.823-.959-.092 0 2.011 2.024 2.194 3.195.275.639-1.006.958-2.194.745-2.559-.319-.366.533-1.462 1.598-2.467 2.13-1.828 2.13-1.828 1.384.457l-.852 2.284 2.237-2.284c1.278-1.28 2.236-1.828 2.343-1.371 0 .548-.639 1.553-1.278 2.284-.746.731-.213.549 1.171-.457 2.343-1.644 2.556-1.644 1.917-.182-.426 1.005-.319 1.462.32 1.096.638-.274 1.064-.091 1.064.457s.533.731 1.172.366c.852-.366.745-.823-.213-1.371-1.597-.822-1.704-.822 4.366-1.097 1.491-.091 3.728.092 5.112.457 1.278.366 2.343.366 2.343-.091 0-.366 1.81-.731 4.153-.731h4.047l1.81 10.6c.959 5.848 3.302 19.647 5.219 30.704 3.194 19.007 3.407 21.474 3.301 46.146v26.044l-6.07 20.103c-5.751 18.916-6.709 22.023-7.029 24.947 0 .639-.639.914-1.384.548-.852-.457-.959-.183-.533.822.426.914.107 1.554-.639 1.645-.958 0-.958.183.107.549.639.182 1.278.822 1.278 1.279 0 .548-.426.731-.959.457-.532-.366-.745.365-.319 1.462.426 1.462.213 1.736-.959 1.188-1.278-.731-1.278-.548 0 .731 1.065 1.188 1.065 1.553.107 1.553-.746 0-1.065.64-.639 1.462.319.731.213 1.097-.426.823-1.065-.549-1.491.639-1.172 3.015.107.731-.319 1.828-1.065 2.559-.639.731-.852 1.279-.426 1.279.533 0-.213.731-1.384 1.736-1.278.914-2.023 1.919-1.597 2.285.319.274-.213.548-1.385.548-1.704 0-1.81.183-.426.914 1.278.731 1.278.914-.532.914-1.811 0-1.917.183-.533 1.005 1.172.731 1.278 1.097.213 1.462-.639.183-.958.823-.639 1.371.426.548.107.822-.639.548-1.597-.457-3.195-4.934-14.483-40.024-4.366-13.799-8.839-26.592-9.798-28.328-2.023-3.655-5.75-4.569-10.969-2.741-3.833 1.37-3.94 3.107-.426 11.97 1.491 3.747 4.899 13.981 7.455 22.937 2.663 8.864 5.964 19.281 7.348 23.302 1.491 3.929 3.302 9.412 4.154 12.153 7.774 25.404 21.299 57.843 28.966 69.631 3.195 4.844 5.857 9.138 5.857 9.687 0 1.37-5.857 2.01-19.701 2.101-17.252.092-27.156-1.919-32.162-6.579-1.278-1.279-5.75-7.585-10.01-14.072-12.247-19.19-20.234-28.694-32.055-38.38-5.857-4.752-11.076-8.681-11.608-8.681-2.343 0-6.39-11.788-15.335-44.593-2.663-9.687-2.982-10.235-5.538-10.235-1.491 0-4.366.64-6.39 1.554-3.514 1.37-3.727 1.644-3.195 5.665.213 2.285 2.45 11.605 4.899 20.561 2.343 8.955 4.366 16.448 4.366 16.539 0 .183-1.916-.274-4.153-1.005-14.377-4.203-39.296-6.305-49.094-4.021-5.644 1.28-7.455.731-7.455-2.467 0-1.919 2.45-4.843 9.798-11.696 25.985-24.399 36.741-41.852 44.089-71.277 2.662-10.782 2.982-13.798 3.195-33.079.213-20.012.319-21.383 2.662-25.312 1.278-2.285 2.982-4.204 3.834-4.204 1.81 0 1.81 1.462.106 2.468-.745.365-2.13 1.553-2.982 2.558-.851 1.005.32.457 2.663-1.279s4.26-3.473 4.26-3.838c0-.731 5.644-5.392 6.496-5.3.319 0 4.473-1.645 9.265-3.747 7.135-3.198 10.756-5.665 20.234-13.889 6.283-5.483 12.779-11.697 14.27-13.616 1.704-2.193 3.408-3.472 4.473-3.29.958.183 1.597.823 1.384 1.462-.106.64.213.823.959.549.852-.457.852-.914 0-1.645-1.704-1.462-1.385-2.467.532-1.828 1.278.366 1.491 1.28 1.065 3.381Zm86.155 153.244c8.093 31.343 21.938 75.388 26.517 84.252 1.384 2.65 4.686 6.945 7.348 9.686 3.195 3.199 6.177 7.768 8.626 12.976 5.644 12.063 5.005 20.195-1.81 22.206-3.621 1.096-4.473.274-5.431-5.3-1.385-7.037-9.585-16.083-14.59-16.083-3.089 0-3.621 2.558-1.278 5.3 2.769 3.198 5.644 8.041 5.644 9.412 0 .64-.745.731-1.81.365-6.816-2.558-18.85-5.848-23.11-6.396-4.047-.548-5.218-1.188-6.602-3.381-.852-1.462-3.728-5.483-6.39-9.047-2.663-3.472-4.473-6.762-4.153-7.219.319-.548-.107-.639-.959-.365-1.065.365-1.704.091-1.704-.64 0-.64-.745-1.828-1.597-2.65-.959-.914-3.515-6.671-5.857-12.885-3.302-8.955-3.941-11.513-2.876-12.61 1.065-1.096.959-1.279-.532-.731-1.385.457-1.917.091-1.917-1.188 0-1.005-.533-1.827-1.172-1.827-.639 0-.958-.457-.745-1.006.532-1.462 2.236-1.096 2.556.64.106.822.639 1.736 1.065 2.01.426.366.426-.091.106-1.005-.426-.914-.213-1.553.533-1.553.745 0 .319-.549-.746-1.28-1.171-.731-2.662-1.096-3.408-.822-.852.274-1.384-.183-1.384-1.188s-.32-2.741-.746-3.929c-.532-1.828-.319-2.102 1.065-1.645 1.065.365 1.811.183 1.811-.274 0-.549-.639-.914-1.491-.914-.852 0-1.385-.731-1.172-1.645.213-.822.426-1.919.426-2.284.107-.457.746-.457 1.491-.092.852.457.852.183-.213-.822-1.171-1.279-1.171-1.554 0-1.645.852-.091 1.917-.091 2.343 0 .533.091.639-.274.32-.731-.852-1.188 2.662-7.493 3.834-6.854.426.275.532-.091.319-.731-.319-.731 1.491-5.665 4.153-10.965 2.556-5.392 4.367-9.961 4.047-10.235-.319-.365 0-.548.746-.548.745 0 1.065-.365.639-.914-.32-.457.106-2.376 1.065-4.295.958-1.919 1.597-3.563 1.49-3.746-.426-.823 2.663-5.666 3.728-5.666.639 0 .426-.457-.426-.913-1.278-.732-1.278-.914.532-.914 1.704 0 1.811-.183.533-.914-1.278-.64-1.278-1.097-.213-2.01.639-.549 1.278-.731 1.278-.275 0 .549.426.366.958-.365 1.172-1.554.32-3.929-1.065-3.198-.532.274-.958 0-.958-.457 0-.549.852-1.005 1.917-1.005.958 0 1.384-.366.745-.731-1.491-.914-1.81-2.925-.532-2.925.532 0 .745-.639.319-1.462-.319-.822 0-1.827.852-2.284 1.172-.64 1.172-1.005.107-1.554-.746-.457-1.065-1.462-.639-2.376 1.597-3.563 3.833 1.554 8.413 19.647Zm24.174 5.483c11.288 6.305 19.702 17.362 22.683 29.881 1.598 6.762 1.917 18.55.533 19.647-.32.274-3.834.639-7.774.913-6.177.366-6.922.275-5.325-.822 1.597-1.005 1.704-1.188.213-1.279-3.408 0-5.005-3.473-9.371-19.83-2.45-9.229-5.432-19.464-6.603-22.845-3.195-9.777-2.769-10.234 5.644-5.665Zm-191.797 41.578c14.27 3.289 25.026 8.407 35.782 17.088 11.714 9.595 21.193 20.469 29.286 33.902 9.585 15.808 12.992 19.92 19.382 23.21 12.034 6.122 22.045 7.402 52.396 6.762 33.972-.64 42.385 1.188 54.419 11.971 7.348 6.579 9.478 11.148 8.306 17.91-1.704 9.869-11.927 21.749-22.683 26.5-2.45 1.006-8.626 2.833-13.738 3.838-9.691 2.011-20.767 2.285-48.775 1.28-6.389-.274-14.483-.457-17.784-.366-4.793 0-6.071-.274-5.538-1.279.319-.731-.107-1.279-1.065-1.279-.852 0-1.384.365-1.065.822.319.365-.958.731-2.769.731-1.81 0-3.088-.366-2.769-.731.213-.366-1.171-.548-3.195-.366-2.13.275-3.62 0-3.62-.639 0-.548-.746-.731-1.598-.457-.852.365-1.597.183-1.597-.274s-1.917-.731-4.26-.64c-2.343.091-4.579-.274-4.899-.64-.319-.456-1.065-.639-1.597-.365-.533.365-.959.183-.959-.366 0-.548-.639-.731-1.491-.457-.852.275-1.81 0-2.236-.548-.639-.822-1.065-.822-1.704.092-.745 1.005-.958.822-.958-.549 0-1.462-.213-1.553-.959-.548-.745 1.005-1.597 1.097-3.514.457-1.385-.548-4.579-1.097-7.242-1.188-2.662-.183-5.431-.64-6.07-1.188-.959-.731-1.384-.64-1.384.274s-.32.914-.852.274c-.639-.913-5.112-1.827-11.928-2.376-1.491-.091-2.982-.639-3.408-1.187-.532-.549-.852-.457-.852.365 0 1.005-.319 1.005-1.597.091-.852-.639-1.598-.822-1.598-.548 0 .366-.958.183-2.129-.365-1.598-.731-2.13-.731-2.13.182 0 .823-.32.823-1.065-.182-.533-.731-1.065-.914-1.065-.366 0 1.554-3.195 1.097-3.302-.457 0-.914-.213-1.096-.639-.365-.213.639-.958 1.188-1.49 1.188-.639 0-.746-.457-.426-.914.319-.548.213-.914-.426-.914-.533 0-1.278.366-1.598.822-.958 1.28-5.964 0-5.964-1.644 0-1.188-.213-1.188-.958-.183-.852 1.096-2.13 1.005-8.52-.366-4.153-1.005-7.561-2.101-7.561-2.558 0-.366-.426-.549-1.065-.183-.532.274-1.917-.274-2.982-1.188-1.064-.914-2.555-1.462-3.194-1.279-.746.182-1.278-.092-1.278-.64s-.639-1.005-1.491-1.005c-2.237 0-7.135-2.376-6.283-3.016.319-.365-.426-.639-1.704-.639s-2.024-.366-1.704-.914c.319-.548-.107-.914-.959-.914-.958 0-1.704-.457-1.704-1.097 0-.548-.319-.731-.745-.456-.959.822-6.816-3.93-6.07-4.935.319-.457-.32-.548-1.278-.183-1.278.366-1.598.274-1.065-.457.426-.639-.107-1.37-1.278-1.827-5.325-1.736-18.211-18.733-22.471-29.699-6.176-15.991-6.283-29.698-.319-43.039 6.07-13.342 15.016-22.114 28.86-28.237 16.72-7.493 28.221-8.315 48.136-3.746Zm299.144 4.934c6.816.548 10.117 1.371 14.27 3.747 7.561 4.386 7.455 5.391-2.023 14.986-6.496 6.671-7.668 9.504-5.112 12.885 2.769 3.655 7.561 2.558 15.122-3.473 5.645-4.569 5.964-4.752 6.284-2.65.532 3.016-1.704 10.052-4.047 12.976-1.172 1.371-2.982 4.204-4.154 6.397-1.171 2.375-5.005 6.579-9.371 10.051-5.857 4.935-9.904 7.128-19.808 11.24-11.502 4.843-14.696 5.94-18.85 6.305-.852.092-1.917.457-2.236.823-.32.457-2.556.822-5.112.914-2.449.091-4.686.365-4.899.731-.213.274-2.023.456-3.94.365-1.917-.091-3.834.274-4.26.822-.639.823-.852.732-.852-.091 0-.64-.532-.914-1.065-.64-.639.366-.852 1.006-.532 1.463.426.456.213.822-.426.822-.533 0-1.385-.457-1.811-1.005-.426-.731-.958-.64-1.597.183-.639.913-.958.913-.958.182 0-.822-.746-.914-2.663-.274-1.704.548-2.662.548-2.769 0-.319-2.376-.745-4.66-.852-5.665 0-.549-1.065-.092-2.236 1.096-1.597 1.645-1.81 2.376-.958 3.381.958 1.005.851 1.097-.533.64-1.171-.366-1.704-.183-1.491.64.213.731-.532 1.279-1.704 1.279-1.81 0-2.023-.731-1.81-9.138.106-9.504-1.278-19.555-2.876-20.469-.532-.274-1.703-1.828-2.662-3.29-.852-1.553-4.899-6.214-8.839-10.509-8.2-8.863-13.099-17.179-10.863-18.367.746-.457 2.876-.822 4.793-.822 1.917 0 8.626-.64 14.909-1.462 10.969-1.371 15.442-2.468 43.982-11.24 12.46-3.838 15.868-4.112 31.949-2.833Zm-7.242 84.07 1.811 2.741-2.556-1.554c-1.385-.913-2.663-2.193-2.663-2.832 0-1.919 1.491-1.188 3.408 1.645Zm-7.667 1.827c0 .457-.213.914-.426.914-.32 0-.852-.457-1.172-.914-.319-.548-.106-.914.426-.914.639 0 1.172.366 1.172.914Zm-358.569 14.347 2.876 3.289-3.834 2.011c-5.218 2.65-14.803 12.427-18.637 19.007-2.769 4.66-3.408 5.117-5.218 4.295-2.662-1.28-2.662-3.747.106-11.514 1.917-5.392 3.195-7.036 10.437-13.342 4.473-3.929 8.839-7.127 9.691-7.127.852.091 2.875 1.553 4.579 3.381Zm1.278 27.688c-.319.457-1.278.914-1.917.914-.745 0-.639-.366.32-.914 2.023-1.097 2.449-1.097 1.597 0Zm6.496 5.757c.32 2.193-1.384 1.919-2.023-.366-.319-1.096-.106-1.736.533-1.553.638.183 1.277 1.096 1.49 1.919Zm2.237.822c-.32.731-.639.457-.639-.548-.107-1.005.213-1.554.532-1.188.32.274.426 1.096.107 1.736Zm-40.149 9.869c1.278.548 2.343 2.559 2.982 5.666.533 2.65 2.13 9.96 3.408 16.265 1.278 6.306 2.982 14.53 3.834 18.276 2.449 11.514 2.982 22.114 1.171 24.124-1.278 1.554-1.917 1.645-5.005.64-2.023-.548-4.366-1.645-5.218-2.376-.959-.731-5.219-4.203-9.372-7.584-4.26-3.381-7.774-6.671-7.774-7.311 0-.548-.745-1.096-1.597-1.096s-1.598-.457-1.598-.914c0-.548.639-.914 1.385-.914.639 0 .106-.548-1.278-1.188-1.385-.548-2.45-1.462-2.343-1.919.213-.457-.32-1.096-1.172-1.553-.745-.457-1.491-1.188-1.491-1.736-.106-.457-.213-1.371-.319-1.919 0-.457-.533-.731-1.065-.457-1.171.639-8.626-12.245-9.372-16.266-.852-4.477 2.237-12.519 5.964-15.534 4.792-3.93 13.206-6.214 20.66-5.575 3.408.183 7.029.823 8.2 1.371Z"/></svg>